<?xml version="1.0" encoding="UTF-8"?>
<!-- Created with Inkscape (http://www.inkscape.org/) -->
<svg width="298.43" height="228.33" version="1.1" viewBox="0 0 298.43031 228.32933" xml:space="preserve" xmlns="http://www.w3.org/2000/svg" xmlns:cc="http://creativecommons.org/ns#" xmlns:dc="http://purl.org/dc/elements/1.1/" xmlns:rdf="http://www.w3.org/1999/02/22-rdf-syntax-ns#"><metadata><rdf:RDF><cc:Work rdf:about=""><dc:format>image/svg+xml</dc:format><dc:type rdf:resource="http://purl.org/dc/dcmitype/StillImage"/><dc:title/></cc:Work></rdf:RDF></metadata><defs><clipPath id="clipPath18"><path d="m0 412h850v-412h-850z"/></clipPath></defs><g transform="matrix(1.3333 0 0 -1.3333 -182.1 463.8)"><g clip-path="url(#clipPath18)"><g transform="translate(307.39 215.28)"><path d="m0 0c-7.32-19.984-25.421-36.633-49.198-38.357-18.388-1.333-36.325 1.285-52.718 10.584-18.802 10.666-36.435 22.938-51.884 38.166-0.454 0.448-1.102 0.843-1.293 1.39-0.139 0.398-0.274 0.796-0.407 1.196-1.14 3.454 1.808 7.12 5.365 6.36 0.409-0.088 0.788-0.225 1.128-0.429 4.874-2.924 9.088-6.954 13.543-10.569 1.984-1.61 3.735-3.599 5.921-4.836 0.194-0.11 0.399-0.202 0.613-0.28 2.781-1.012 5.679 1.879 4.591 4.631l-0.018 0.045c-1.078 2.614-2.783 4.992-4.381 7.363-4.365 6.475-8.933 12.818-13.155 19.384-1.337 2.08-2.085 4.64-2.657 7.083-0.723 3.089 0.204 5.865 3.394 7.05 3.201 1.189 6.225 0.365 7.851-2.736 2.73-5.204 5.326-10.504 7.572-15.933 7.746-18.717 19.194-34.909 35.644-46.566 20.947-14.845 43.452-14.477 65.977-2.928 9.318 4.778 17.306 11.295 24.112 19.382" fill="#f58725"/></g><g transform="translate(200.84 224.55)"><path d="m0 0c-2.972 7.938-6.294 15.772-8.72 23.874-0.813 2.716 0.091 6.346 1.223 9.15 1.669 4.136 6.605 4.309 9.11 0.58 0.948-1.409 1.941-3.182 1.923-4.778-0.108-9.476-0.506-18.949-0.806-28.422-0.91-0.135-1.82-0.27-2.73-0.404" fill="#f58725"/></g><g transform="translate(155.71 245.7)"><path d="m0 0c-4.989 2.831-10.015 5.6-14.891 8.613-1.547 0.955-3.112 2.579-3.679 4.235-0.629 1.837-0.886 5.265 0.052 5.859 1.782 1.127 4.951 1.615 6.772 0.748 2.414-1.149 4.407-3.629 6.012-5.933 2.651-3.807 4.979-7.838 7.39-11.813-0.884-0.912-0.773-0.797-1.656-1.709" fill="#f58725"/></g><g transform="translate(182.33 289.45)"><path d="m0 0c2.189 18.728 9.092 33.771 23.575 44.683 12.445 9.376 27.047 12.852 42.203 13.582 25.419 1.226 49.104-6.299 72.284-15.716 4.574-1.858 9.21-3.738 13.394-6.3 0.192-0.119 0.375-0.253 0.549-0.402 3.016-2.586 1.336-7.83-2.614-8.254-0.398-0.042-0.781-0.025-1.142 0.071-6.423 1.714-12.567 4.466-18.823 6.802-1.787 0.668-3.548 1.606-5.396 1.847-0.082 0.01-0.164 0.019-0.247 0.025-2.68 0.201-4.768-2.63-3.582-5.042 0.143-0.293 0.321-0.548 0.546-0.75 4.023-3.611 8.425-6.804 12.731-10.095 3.548-2.712 7.317-5.159 10.693-8.065 2.388-2.057 4.524-4.517 6.331-7.106 1.902-2.724 1.998-5.764-0.673-8.247-2.658-2.471-5.813-2.348-8.24-0.084-4.419 4.123-8.583 8.55-12.577 13.093-13.333 15.163-29.244 26.578-48.316 33.357-19.123 6.798-36.408 1.895-52.556-8.904-11.407-7.63-16.536-14.074-28.14-34.495" fill="#1879be"/></g><g transform="translate(286.6 313.25)"><path d="m0 0c5.251-6.463 10.763-12.74 15.608-19.495 1.611-2.246 2.124-5.748 1.979-8.618-0.095-1.898-1.891-4.536-3.603-5.273-1.444-0.622-4.747 0.413-5.676 1.773-2.371 3.471-4.398 7.377-5.608 11.396-1.893 6.289-2.999 12.815-4.438 19.241 0.579 0.326 1.158 0.651 1.738 0.976" fill="#1879be"/></g><g transform="translate(335.46 307.45)"><path d="m0 0c6.66-1.653 13.46-2.893 19.93-5.101 4.446-1.518 6.097-5.514 4.275-8.158-2.411-3.499-6.046-3.085-8.911-1.203-5.642 3.706-10.893 8.007-16.306 12.062 0.337 0.8 0.675 1.6 1.012 2.4" fill="#1879be"/></g></g></g></svg>
