<?xml version="1.0" encoding="UTF-8" standalone="no"?>
<svg
   id="Layer_1"
   data-name="Layer 1"
   viewBox="0 0 367.41334 849.04233"
   version="1.1"
   sodipodi:docname="enseigne-right-with-price.svg"
   inkscape:version="1.1 (c4e8f9e, 2021-05-24)"
   width="367.41333"
   height="849.04236"
   xmlns:inkscape="http://www.inkscape.org/namespaces/inkscape"
   xmlns:sodipodi="http://sodipodi.sourceforge.net/DTD/sodipodi-0.dtd"
   xmlns:xlink="http://www.w3.org/1999/xlink"
   xmlns="http://www.w3.org/2000/svg"
   xmlns:svg="http://www.w3.org/2000/svg">
  <sodipodi:namedview
     id="namedview170"
     pagecolor="#505050"
     bordercolor="#ffffff"
     borderopacity="1"
     inkscape:pageshadow="0"
     inkscape:pageopacity="0"
     inkscape:pagecheckerboard="1"
     showgrid="false"
     inkscape:zoom="1"
     inkscape:cx="131.5"
     inkscape:cy="270.5"
     inkscape:window-width="1440"
     inkscape:window-height="789"
     inkscape:window-x="0"
     inkscape:window-y="23"
     inkscape:window-maximized="0"
     inkscape:current-layer="Layer_1" />
  <defs
     id="defs115">
    <rect
       x="17"
       y="640"
       width="348"
       height="75"
       id="rect455269" />
    <rect
       x="21"
       y="540"
       width="367"
       height="271"
       id="rect371851" />
    <rect
       x="31"
       y="377"
       width="355"
       height="74"
       id="rect154059" />
    <rect
       x="18"
       y="310"
       width="233"
       height="57"
       id="rect123800" />
    <rect
       x="11"
       y="192"
       width="389"
       height="196"
       id="rect71373" />
    <rect
       x="28"
       y="552"
       width="269"
       height="71"
       id="rect34668" />
    <rect
       x="204"
       y="21"
       width="1917"
       height="86"
       id="rect18840" />
    <rect
       x="413"
       y="154"
       width="564"
       height="56"
       id="rect54424" />
    <style
       id="style113">.cls-1{fill:#f58725;}.cls-2{fill:#1879be;}</style>
    <clipPath
       clipPathUnits="userSpaceOnUse"
       id="clipPath21092">
      <use
         x="0"
         y="0"
         xlink:href="#g21088"
         id="use21094"
         width="100%"
         height="100%" />
    </clipPath>
  </defs>
  <g
     id="g21090"
     clip-path="url(#clipPath21092)"
     transform="translate(-6.3577533)">
    <g
       inkscape:label="Clip"
       id="g21088">
      <text
         xml:space="preserve"
         style="font-style:normal;font-variant:normal;font-weight:normal;font-stretch:normal;font-size:53.3333px;line-height:1.25;font-family:'Shintia Script';-inkscape-font-specification:'Shintia Script, Normal';font-variant-ligatures:normal;font-variant-caps:normal;font-variant-numeric:normal;font-variant-east-asian:normal;text-align:center;text-anchor:middle;fill:#0066ff;fill-opacity:1;stroke:none;stroke-width:1.04812"
         x="186.27388"
         y="170.45148"
         id="text20146"
         transform="scale(1.0481178,0.95409123)"><tspan
           sodipodi:role="line"
           x="186.2739"
           y="170.45148"
           id="tspan91795"
           style="font-size:53.3333px;text-align:center;text-anchor:middle;fill:#f58725;fill-opacity:1;stroke-width:1.04812">Laverie / Pressing</tspan></text>
    </g>
  </g>
  <text
     xml:space="preserve"
     style="font-style:normal;font-variant:normal;font-weight:normal;font-stretch:normal;font-size:109.527px;line-height:1.25;font-family:'Shintia Script';-inkscape-font-specification:'Shintia Script, Normal';font-variant-ligatures:normal;font-variant-caps:normal;font-variant-numeric:normal;font-variant-east-asian:normal;fill:#2c5aa0;fill-opacity:1;stroke:none;stroke-width:2.73817"
     x="95.763329"
     y="96.440674"
     id="text18252"
     transform="scale(1.1666473,0.85715708)"><tspan
       sodipodi:role="line"
       id="tspan18250"
       x="95.763329"
       y="96.440674"
       style="stroke-width:2.73817"><tspan
         style="fill:#0066ff;stroke-width:2.73817"
         id="tspan255137">Sy</tspan><tspan
         style="fill:#f58725;fill-opacity:1;stroke-width:2.73817"
         id="tspan191659">ra</tspan></tspan></text>
  <g
     id="g171533"
     transform="matrix(0.74403241,0,0,0.70312071,23.612702,4.4876373)">
    <path
       id="path28-9-8-6"
       style="fill:#0066ff;fill-opacity:1;fill-rule:nonzero;stroke:none;stroke-width:0.0557203"
       d="m 85.702474,11.003875 c 0,0 25.621276,2.983739 29.113006,-2.9102432 2.65541,-4.4832052 -3.36375,-8.83950463 -15.613041,-3.4345642 -8.901986,3.9280162 -13.499965,6.3448074 -13.499965,6.3448074" />
    <path
       id="path36-6"
       style="fill:#f58725;fill-opacity:1;fill-rule:nonzero;stroke:none;stroke-width:0.0557203"
       d="m 48.392955,118.39439 c 0,0 -29.218772,0.78536 -31.51695,7.88158 -1.747619,5.39767 6.093327,9.26817 18.236247,1.31457 8.825446,-5.78042 13.280703,-9.19615 13.280703,-9.19615" />
    <path
       id="path38-7"
       style="fill:#f58725;fill-opacity:1;fill-rule:nonzero;stroke:none;stroke-width:0.0375278"
       d="m 58.047163,137.44616 c -5.703205,5.96368 -14.996125,8.60587 -16.801988,3.36675 -1.893947,-5.49513 23.844057,-12.03039 23.844057,-12.03039 0,0 -1.339396,2.69971 -7.042069,8.66364" />
    <path
       id="path40-3-8"
       style="fill:#f58725;fill-opacity:1;fill-rule:nonzero;stroke:none;stroke-width:0.0486768"
       d="m 5.1812213,106.22873 c 0.795804,-2.08908 16.0753897,-1.10036 36.4066357,-0.38314 0,0 57.142552,0.82528 61.693353,-11.09936 0.55538,-1.4553 0.32775,-3.100061 -0.88278,-4.959751 C 89.859769,70.522527 28.715178,52.099601 28.715178,52.099601 l -1.952464,-0.656076 c 3.16619,0.680093 6.729614,1.527251 10.566456,2.519621 22.853866,5.739026 74.54277,20.865908 85.07465,38.492524 2.32259,3.88747 3.29021,7.24247 2.10381,10.3513 -0.17764,0.46527 -0.4035,0.92468 -0.6801,1.37992 -0.0423,0.14594 -0.0905,0.29003 -0.14474,0.43224 -0.11566,0.30276 -0.26014,0.59642 -0.44285,0.87896 l -0.005,0.0102 -0.005,0.005 c -0.78701,1.20912 -1.99615,2.28829 -3.49551,3.26325 -10.14539,8.5129 -30.990141,13.42673 -39.911215,15.21462 -1.361951,0.33072 -2.7711,0.5964 -4.203749,0.77995 l -8.6e-5,2.1e-4 c -4.82111,0.61826 -9.904969,0.30298 -14.350282,-1.62062 -2.394049,-1.03647 -3.159423,-1.95379 -2.84457,-2.77869 0.626359,-1.64259 5.532913,-2.91983 10.382875,-4.04721 4.849915,-1.12716 9.642759,-2.10482 10.040864,-3.14801 0.20624,-0.54044 -0.766131,-1.09829 -3.522418,-1.70374 -12.176281,-2.67566 -50.196491,6.33934 -67.6569477,-2.92536 -1.922106,-1.02007 -2.696475,-1.77302 -2.489935,-2.31697" />
    <path
       id="path40-8-3-4"
       style="fill:#0066ff;fill-opacity:1;fill-rule:nonzero;stroke:none;stroke-width:0.050294"
       d="m 117.60927,27.497822 c -0.74296,2.315143 -15.77177,2.146223 -35.757746,2.57119 0,0 -56.150332,2.486955 -60.401691,15.701838 -0.518836,1.612757 -0.264971,3.384865 0.95841,5.332102 12.671755,20.170872 73.077036,36.55121 73.077036,36.55121 l 1.93011,0.596651 C 94.292529,87.69998 90.776359,86.991166 86.988939,86.140965 64.432472,81.263591 13.376745,67.901685 2.7065013,49.389498 0.35338529,45.306761 -0.65885771,41.721786 0.44950029,38.276587 c 0.165867,-0.515585 0.379303,-1.027736 0.64276601,-1.538296 0.03879,-0.160944 0.08362,-0.320222 0.134332,-0.477835 0.107896,-0.335489 0.244541,-0.662884 0.419057,-0.98039 l 0.0029,-0.01168 0.0029,-0.0058 c 0.750835,-1.359267 1.918817,-2.602408 3.373794,-3.7496 C 14.835324,21.670667 35.222228,15.102172 43.953139,12.633112 45.28502,12.193449 46.66444,11.821585 48.068458,11.537518 l 8.6e-5,-2.48e-4 c 4.724752,-0.956534 9.724763,-0.915279 14.127121,0.909844 2.370861,0.983487 3.139593,1.934017 2.845514,2.848156 -0.585586,1.820215 -5.381768,3.497352 -10.125471,5.008373 -4.743689,1.510759 -9.434047,2.85587 -9.805966,4.011915 -0.192676,0.598927 0.772787,1.146972 3.491631,1.641082 12.010198,2.184015 49.194386,-9.853553 66.517317,-0.82935 1.90697,0.99361 2.68154,1.765168 2.48864,2.367938" />
  </g>
  <text
     xml:space="preserve"
     style="font-style:normal;font-weight:normal;font-size:40px;line-height:1.25;font-family:sans-serif;fill:#000000;fill-opacity:1;stroke:none"
     x="51.642246"
     y="445"
     id="text3520"><tspan
       sodipodi:role="line"
       id="tspan3518"
       x="51.642246"
       y="445" /></text>
  <text
     xml:space="preserve"
     id="text71371"
     style="font-style:normal;font-weight:normal;font-size:42.6667px;line-height:1.25;font-family:sans-serif;text-align:center;white-space:pre;shape-inside:url(#rect71373);fill:#0066ff;fill-opacity:1;stroke:none"
     x="153.43141"
     y="0"
     transform="translate(-20.357753,2)"><tspan
       x="51.958219"
       y="230.92612"
       id="tspan487177"><tspan
         style="font-family:'Shintia Script';-inkscape-font-specification:'Shintia Script'"
         id="tspan487175">Ouvert tous les jours
</tspan></tspan><tspan
       x="107.99993"
       y="286.41366"
       id="tspan487185"><tspan
   style="font-family:'Shintia Script';-inkscape-font-specification:'Shintia Script'"
   id="tspan487179">de 9h </tspan><tspan
   style="font-family:'Shintia Script';-inkscape-font-specification:'Shintia Script'"
   id="tspan487181">à </tspan><tspan
   style="font-family:'Shintia Script';-inkscape-font-specification:'Shintia Script'"
   id="tspan487183">21h</tspan>
</tspan></text>
  <text
     xml:space="preserve"
     id="text123798"
     style="font-style:normal;font-weight:normal;font-size:40px;line-height:1.25;font-family:sans-serif;white-space:pre;shape-inside:url(#rect123800);fill:#f58725;fill-opacity:1;stroke:none"
     transform="translate(-8.3577533,4)" />
  <text
     xml:space="preserve"
     id="text154057"
     style="font-style:normal;font-weight:normal;font-size:40px;line-height:1.25;font-family:sans-serif;white-space:pre;shape-inside:url(#rect154059);fill:#000000;fill-opacity:1;stroke:none"
     transform="translate(-6.3577533)" />
  <text
     xml:space="preserve"
     style="font-style:normal;font-weight:normal;font-size:40px;line-height:1.25;font-family:sans-serif;fill:#0066ff;fill-opacity:1;stroke:none"
     x="4.6422467"
     y="356"
     id="text158927"><tspan
       sodipodi:role="line"
       x="4.6422467"
       y="356"
       style="font-style:normal;font-variant:normal;font-weight:normal;font-stretch:normal;font-size:42.6667px;font-family:'Shintia Script';-inkscape-font-specification:'Shintia Script';fill:#f58725;fill-opacity:1"
       id="tspan233947">Nos tarifs:</tspan><tspan
       sodipodi:role="line"
       x="4.6422467"
       y="409.05463"
       style="font-style:normal;font-variant:normal;font-weight:normal;font-stretch:normal;font-family:'Shintia Script';-inkscape-font-specification:'Shintia Script';fill:#0066ff;fill-opacity:1"
       id="tspan233945">Non-séché   <tspan
   style="fill:#f58725"
   id="tspan260783">300fcfa/Kg</tspan></tspan><tspan
       sodipodi:role="line"
       x="4.6422467"
       y="461.07416"
       id="tspan197107"
       style="font-style:normal;font-variant:normal;font-weight:normal;font-stretch:normal;font-family:'Shintia Script';-inkscape-font-specification:'Shintia Script'">Couverture      <tspan
   style="fill:#f58725"
   id="tspan263533">2000fcfa</tspan></tspan><tspan
       sodipodi:role="line"
       x="4.6422467"
       y="513.09369"
       id="tspan250319"
       style="font-style:normal;font-variant:normal;font-weight:normal;font-stretch:normal;font-family:'Shintia Script';-inkscape-font-specification:'Shintia Script'">Bazin              <tspan
   style="fill:#f58725"
   id="tspan266337">2000fcfa</tspan></tspan></text>
  <text
     xml:space="preserve"
     id="text371849"
     style="font-style:normal;font-weight:normal;font-size:26.6667px;line-height:1.25;font-family:sans-serif;white-space:pre;shape-inside:url(#rect371851);fill:#0066ff;fill-opacity:0.854902;stroke:none"
     transform="translate(-16.357753,-15)"><tspan
       x="21"
       y="564.32884"
       id="tspan487189"><tspan
         style="font-family:'Shintia Script';-inkscape-font-specification:'Shintia Script'"
         id="tspan487187">Pour les autres prestations, vous </tspan></tspan><tspan
       x="21"
       y="599.00859"
       id="tspan487197"><tspan
         style="font-family:'Shintia Script';-inkscape-font-specification:'Shintia Script'"
         id="tspan487191">adresser </tspan><tspan
         style="font-family:'Shintia Script';-inkscape-font-specification:'Shintia Script'"
         id="tspan487193">à </tspan><tspan
         style="font-family:'Shintia Script';-inkscape-font-specification:'Shintia Script'"
         id="tspan487195">l'inteérieur ou nous </tspan></tspan><tspan
       x="21"
       y="633.68834"
       id="tspan487201"><tspan
         style="font-family:'Shintia Script';-inkscape-font-specification:'Shintia Script'"
         id="tspan487199">contacter:</tspan></tspan></text>
  <text
     xml:space="preserve"
     id="text455267"
     style="font-style:normal;font-weight:normal;font-size:40px;line-height:1.25;font-family:sans-serif;white-space:pre;shape-inside:url(#rect455269);fill:#000000;fill-opacity:1;stroke:none"
     transform="translate(-6.3577533)" />
  <text
     xml:space="preserve"
     style="font-style:normal;font-weight:normal;font-size:40px;line-height:1.25;font-family:sans-serif;fill:#0066ff;fill-opacity:1;stroke:none"
     x="-3.8294635"
     y="682.98651"
     id="text158927-7"><tspan
       sodipodi:role="line"
       x="-3.8294635"
       y="682.98651"
       style="font-style:normal;font-variant:normal;font-weight:normal;font-stretch:normal;font-family:'Shintia Script';-inkscape-font-specification:'Shintia Script'"
       id="tspan288703">Agence Aissatou Camara</tspan><tspan
       sodipodi:role="line"
       x="-3.8294635"
       y="735.00604"
       style="font-style:normal;font-variant:normal;font-weight:normal;font-stretch:normal;font-family:'Shintia Script';-inkscape-font-specification:'Shintia Script'"
       id="tspan288705">Tel:       <tspan
   style="fill:#f58725"
   id="tspan308427">77 123 456 78</tspan></tspan><tspan
       sodipodi:role="line"
       x="-3.8294635"
       y="787.02557"
       style="font-style:normal;font-variant:normal;font-weight:normal;font-stretch:normal;font-family:'Shintia Script';-inkscape-font-specification:'Shintia Script'"
       id="tspan288761">Email:  <tspan
   style="fill:#f58725"
   id="tspan311675">contact@syra.sn</tspan></tspan><tspan
       sodipodi:role="line"
       x="-3.8294635"
       y="839.0451"
       style="font-style:normal;font-variant:normal;font-weight:normal;font-stretch:normal;font-family:'Shintia Script';-inkscape-font-specification:'Shintia Script'"
       id="tspan288763">Site:     <tspan
   style="fill:#f58725"
   id="tspan314977">www.syra.sn</tspan></tspan></text>
</svg>
