<?xml version="1.0" encoding="UTF-8" standalone="no"?>
<svg
   id="Layer_1"
   data-name="Layer 1"
   viewBox="0 0 652.67 283.7"
   version="1.1"
   sodipodi:docname="new-syra-logo-with-baseline.svg"
   inkscape:version="1.1 (c4e8f9e, 2021-05-24)"
   xmlns:inkscape="http://www.inkscape.org/namespaces/inkscape"
   xmlns:sodipodi="http://sodipodi.sourceforge.net/DTD/sodipodi-0.dtd"
   xmlns="http://www.w3.org/2000/svg"
   xmlns:svg="http://www.w3.org/2000/svg">
  <sodipodi:namedview
     id="namedview170"
     pagecolor="#505050"
     bordercolor="#ffffff"
     borderopacity="1"
     inkscape:pageshadow="0"
     inkscape:pageopacity="0"
     inkscape:pagecheckerboard="1"
     showgrid="false"
     inkscape:zoom="1.1955057"
     inkscape:cx="516.09959"
     inkscape:cy="215.39002"
     inkscape:window-width="1457"
     inkscape:window-height="789"
     inkscape:window-x="-17"
     inkscape:window-y="24"
     inkscape:window-maximized="0"
     inkscape:current-layer="Layer_1"
     inkscape:snap-to-guides="true"
     inkscape:snap-grids="true" />
  <defs
     id="defs115">
    <style
       id="style113">.cls-1{fill:#f58725;}.cls-2{fill:#1879be;}</style>
  </defs>
  <path
     class="cls-2"
     d="M436.16,86c-12.2-1.48-21.44,6.65-22.73,17.37-3.52,27.18,48.24,42.15,39,83.74-9.24,42.52-90,44.74-77.27-8.5a32.6,32.6,0,0,1,19.23-22.18c3.32-.93,16.45,4.8,18.85,10.35a26.9,26.9,0,0,0-23.47,17.56c-11.28,35.12,36,34,41.77,3.51,7-34-42.14-47.32-40.11-78.56,1.29-19,20.89-34,44.92-30.87,36.41,5,30.13,55.45-4.81,45.66-3.32-1.11-4.06-15.9.37-14.42C450.4,119.8,459.09,88.2,436.16,86Z"
     transform="translate(-98.67 -64.15)"
     id="path129" />
  <path
     class="cls-2"
     d="M543.75,234.23c-10.72-3.7-22.55-5.92-33.28-5.18-1.1,3.51-1.47,5.73-3.32,12.2-4.44,11.46-10.35,20.15-24,21.81-29.58,3.15-30.14-37.71,9.79-42.14l1.85-7.76a21.14,21.14,0,0,1-13.49,5.17c-9.06,0-14.42-4.07-17.38-10.17-5.17-10.53-4.25-35.67,3.51-65.43,5.36-2,17.93-3.15,22.37,0-8.32,26.25-12.38,48.8-10.54,57.86.56,4.25,2.41,7.57,5.55,9.24,3.88,1.85,9.06-1.67,13.12-7.77,5.18-21.81,9.06-38.63,14.42-59.33,7.77-2.22,17.56-3,23.85,0-7.95,21.62-17.56,55.82-23.29,78.19,14.79.55,25.14,4.25,34.75,8.5C549.11,230.53,544.67,234.23,543.75,234.23Zm-52.87-3.7c-19.78,4.07-23.85,18.67-18.3,22.55C480.71,260.29,489,237,490.88,230.53Z"
     transform="translate(-98.67 -64.15)"
     id="path131" />
  <path
     class="cls-2"
     d="M602.91,159c-.38,3.51-13.87,11.83-17.38,9.43,5.54-9.8,4.81-25.88-7.95-16.27-5.55,4.26-12.38,12.57-20.52,32.35-2.4,10.54-5,21.82-6.84,32.35-4.06,1.67-14.42,2.78-17.19,0,3.7-32.53,11.65-64.7,17.19-78,7.21-2,16.45-3,22,0-1.85,3.15-3.7,8.14-6.47,16.09,4.81-7.21,11.46-13.13,19.78-13.5C595,141.06,602.91,149.57,602.91,159Z"
     transform="translate(-98.67 -64.15)"
     id="path133"
     style="fill:#1879be;fill-opacity:1" />
  <path
     class="cls-2"
     d="M688.11,181.55c-2.59,18.11-12.94,36.41-27.54,36.6-8.51,0-13.5-3.52-16.27-9.06a12.77,12.77,0,0,1-1.11-3.14c-5.54,6.47-13.86,11.27-21.44,12-25,2.77-24.59-27.54-21.81-40.48,2.95-13.13,9.61-25.51,18.3-31.43a27.3,27.3,0,0,1,14.42-4.62,32.57,32.57,0,0,1,16.08,4.07l.74-2.22c4.8-1.85,16.82-3,20.89.18-8.14,24-13.68,50.1-11.84,58.79.74,4.07,2.22,6.84,4.81,8.13,9.06,4.81,20.15-20.15,20.33-28.47A4.79,4.79,0,0,1,688.11,181.55ZM647.63,151c-3.88-.92-8.32.74-12.57,3.33-7.58,4.62-13.31,14.23-16.45,24.4-1.3,5-6.66,32.17,5.36,32.17,5.73,0,13.12-6.47,18.3-14.24C641.71,185.43,643.56,168.24,647.63,151Z"
     transform="translate(-98.67 -64.15)"
     id="path135"
     style="fill:#1879be;fill-opacity:1" />
  <path
     class="cls-1"
     d="M128.81,338.73h-27a3.1,3.1,0,0,1-3.1-3.1V293.09a3.1,3.1,0,0,1,3.1-3.1,3.07,3.07,0,0,1,3.1,3.1v39.44h23.94a3.1,3.1,0,0,1,0,6.2Z"
     transform="translate(-98.67 -64.15)"
     id="path137" />
  <path
     class="cls-1"
     d="M180,338.48a3.22,3.22,0,0,1-4.16-1.55l-4.28-9.55a26.06,26.06,0,0,0-12-.18,28,28,0,0,0-9.3,3.66,53.15,53.15,0,0,0-8.68,6.76,3.21,3.21,0,0,1-4,.74c-1.37-.87-1.18-2.61-.56-4l19.6-42.54a3.13,3.13,0,0,1,2.85-1.8,3.09,3.09,0,0,1,2.79,1.8l19.29,42.54A3.18,3.18,0,0,1,180,338.48Zm-20.59-38L147.53,325.9a40.17,40.17,0,0,1,11.1-4.22,32.77,32.77,0,0,1,10.17-.56Z"
     transform="translate(-98.67 -64.15)"
     id="path139" />
  <path
     class="cls-1"
     d="M196.82,338.86a3.12,3.12,0,0,1-2.91-1.93L176.17,294a3.12,3.12,0,0,1,5.77-2.36l14.88,36,14.89-36a3.08,3.08,0,0,1,4-1.67,3,3,0,0,1,1.67,4l-17.73,42.91A3.11,3.11,0,0,1,196.82,338.86Z"
     transform="translate(-98.67 -64.15)"
     id="path141" />
  <path
     class="cls-1"
     d="M258.46,335.63a3.06,3.06,0,0,1-3.1,3.1H225.72a3.11,3.11,0,0,1-3.11-3.1V293.09a3.11,3.11,0,0,1,3.11-3.1h29a3.1,3.1,0,1,1,0,6.2H228.82v14.95h22.94a3.1,3.1,0,0,1,3.1,3.1,3.07,3.07,0,0,1-3.1,3.1H228.82v15.19h26.54A3.07,3.07,0,0,1,258.46,335.63Z"
     transform="translate(-98.67 -64.15)"
     id="path143" />
  <path
     class="cls-1"
     d="M296.65,338.67a3.18,3.18,0,0,1-3-2.54,23.72,23.72,0,0,0-3.53-9.12,11,11,0,0,0-4.34-3.78,9,9,0,0,0-3.6-1c-.8,0-1.67.06-2.54.06a3.1,3.1,0,0,1-3-2.85,3,3,0,0,1,2.48-3.29,11,11,0,0,1,3.16-.19,17.54,17.54,0,0,0,7.63-1.92c2.73-1.55,4-4,4-7.63a12.85,12.85,0,0,0-1.36-6.14,8.36,8.36,0,0,0-2.85-2.85,10.9,10.9,0,0,0-4.72-1.3H269.62v39.44a3.12,3.12,0,0,1-3.11,3.1,3.16,3.16,0,0,1-3.1-3.1V293a3.11,3.11,0,0,1,3.1-3.1h18.42a15.17,15.17,0,0,1,3.66.49,14.94,14.94,0,0,1,7,3.85,14.28,14.28,0,0,1,3.22,5,20,20,0,0,1,1.24,7.19c0,5.83-2.48,10.36-7.13,13-.31.18-.62.31-1,.49a18.75,18.75,0,0,1,3,3.23A29.11,29.11,0,0,1,299.69,335a3.11,3.11,0,0,1-2.42,3.66C297,338.61,296.84,338.67,296.65,338.67Z"
     transform="translate(-98.67 -64.15)"
     id="path145" />
  <path
     class="cls-1"
     d="M308.43,338.73a3.1,3.1,0,0,1-3.1-3.1V293.09a3.14,3.14,0,0,1,3.1-3.1,3.1,3.1,0,0,1,3.1,3.1v42.54A3.06,3.06,0,0,1,308.43,338.73Z"
     transform="translate(-98.67 -64.15)"
     id="path147" />
  <path
     class="cls-1"
     d="M352.64,335.63a3.06,3.06,0,0,1-3.1,3.1H319.9a3.1,3.1,0,0,1-3.1-3.1V293.09a3.1,3.1,0,0,1,3.1-3.1h29a3.1,3.1,0,1,1,0,6.2H323v14.95H346a3.11,3.11,0,0,1,3.1,3.1,3.08,3.08,0,0,1-3.1,3.1H323v15.19h26.54A3.07,3.07,0,0,1,352.64,335.63Z"
     transform="translate(-98.67 -64.15)"
     id="path149" />
  <path
     class="cls-1"
     d="M383.64,347.85a2.79,2.79,0,0,1-1.36-.37,3.11,3.11,0,0,1-1.43-4.16l28.53-58.11a3.09,3.09,0,0,1,4.15-1.42,3.13,3.13,0,0,1,1.43,4.15l-28.53,58.17A3.17,3.17,0,0,1,383.64,347.85Z"
     transform="translate(-98.67 -64.15)"
     id="path151" />
  <path
     class="cls-1"
     d="M446.27,338.73a3.11,3.11,0,0,1-3.11-3.1V293.09a3.11,3.11,0,0,1,3.11-3.1h18.41a15.17,15.17,0,0,1,3.66.49,15.57,15.57,0,0,1,7,3.85,14.45,14.45,0,0,1,3.23,5,20.25,20.25,0,0,1,1.24,7.19c0,5.89-2.49,10.36-7.14,13-3.35,1.92-7.81,2.85-13.33,2.85a3.1,3.1,0,1,1,0-6.2c4.4,0,7.88-.68,10.23-2.05,2.73-1.55,4-4,4-7.63a12.37,12.37,0,0,0-1.36-6.07,7.53,7.53,0,0,0-2.85-2.86,10.47,10.47,0,0,0-4.72-1.36H449.37v39.44A3.07,3.07,0,0,1,446.27,338.73Z"
     transform="translate(-98.67 -64.15)"
     id="path153" />
  <path
     class="cls-1"
     d="M518,338.67a3.16,3.16,0,0,1-3-2.54,23.72,23.72,0,0,0-3.53-9.12,10.93,10.93,0,0,0-4.35-3.78,9,9,0,0,0-3.59-1c-.81,0-1.68.06-2.55.06a3.08,3.08,0,0,1-3-2.85,3,3,0,0,1,2.48-3.29,11,11,0,0,1,3.16-.19,17.58,17.58,0,0,0,7.63-1.92c2.73-1.55,4-4,4-7.63a12.85,12.85,0,0,0-1.37-6.14,8.27,8.27,0,0,0-2.85-2.85,10.87,10.87,0,0,0-4.71-1.3H491v39.44a3.11,3.11,0,0,1-3.1,3.1,3.15,3.15,0,0,1-3.1-3.1V293a3.1,3.1,0,0,1,3.1-3.1h18.42a15.23,15.23,0,0,1,3.66.49,14.86,14.86,0,0,1,7,3.85,14.16,14.16,0,0,1,3.23,5,20,20,0,0,1,1.24,7.19c0,5.83-2.48,10.36-7.13,13-.31.18-.62.31-1,.49a19.56,19.56,0,0,1,3,3.23A29.11,29.11,0,0,1,521.05,335a3.12,3.12,0,0,1-2.42,3.66C518.38,338.61,518.2,338.67,518,338.67Z"
     transform="translate(-98.67 -64.15)"
     id="path155" />
  <path
     class="cls-1"
     d="M562.22,335.63a3.07,3.07,0,0,1-3.1,3.1H529.48a3.11,3.11,0,0,1-3.11-3.1V293.09a3.11,3.11,0,0,1,3.11-3.1h29a3.1,3.1,0,1,1,0,6.2H532.58v14.95h22.94a3.1,3.1,0,0,1,3.1,3.1,3.07,3.07,0,0,1-3.1,3.1H532.58v15.19h26.54A3.08,3.08,0,0,1,562.22,335.63Z"
     transform="translate(-98.67 -64.15)"
     id="path157" />
  <path
     class="cls-1"
     d="M585.4,339.72a32.43,32.43,0,0,1-4.9-.37,24.26,24.26,0,0,1-7.93-2.6,10.36,10.36,0,0,1-5.27-5.46c-.75-2.17,1.55-4.9,3.78-3.78a4.56,4.56,0,0,1,1.3,1.36c2.23,2.73,5.71,3.91,9.06,4.47a23.58,23.58,0,0,0,8.12-.13c2.91-.62,5.7-2.11,6.82-5a6.53,6.53,0,0,0,.19-4.46c-1.43-4.22-6.7-5.77-11.17-6.7a47.07,47.07,0,0,1-8.74-2.54c-3-1.18-5.95-3-7.63-5.83-2-3.41-1.67-8.81-.43-11.35,3.78-7.57,11.1-8.44,15.38-8.44a26,26,0,0,1,9.24,1.62c3.41,1.3,6.08,3.53,6.88,5.89a2.92,2.92,0,0,1-.56,2.91,2.58,2.58,0,0,1-3.22.75,9.68,9.68,0,0,1-.87-.75,14.16,14.16,0,0,0-5.39-3.53A16.69,16.69,0,0,0,584,295c-4.84,0-10.36,1.86-10.36,7.51,0,5.2,4.53,6.75,14.89,9.3,13.27,3.22,15,10.54,13.76,16.74C600.41,337.8,589.5,339.72,585.4,339.72Z"
     transform="translate(-98.67 -64.15)"
     id="path159" />
  <path
     class="cls-1"
     d="M625.83,339.72a32.33,32.33,0,0,1-4.9-.37,24.4,24.4,0,0,1-7.94-2.6,10.44,10.44,0,0,1-5.27-5.46c-.74-2.17,1.55-4.9,3.79-3.78a4.68,4.68,0,0,1,1.3,1.36c2.23,2.73,5.7,3.91,9.05,4.47a23.63,23.63,0,0,0,8.13-.13c2.91-.62,5.7-2.11,6.82-5a6.47,6.47,0,0,0,.18-4.46c-1.42-4.22-6.69-5.77-11.16-6.7a47.07,47.07,0,0,1-8.74-2.54c-3-1.18-6-3-7.63-5.83-2.05-3.41-1.67-8.81-.43-11.35,3.78-7.57,11.1-8.44,15.38-8.44a26,26,0,0,1,9.24,1.62c3.41,1.3,6.07,3.53,6.88,5.89a2.94,2.94,0,0,1-.56,2.91,2.59,2.59,0,0,1-3.22.75,9.68,9.68,0,0,1-.87-.75,14.13,14.13,0,0,0-5.4-3.53,16.61,16.61,0,0,0-6.07-.81c-4.84,0-10.36,1.86-10.36,7.51,0,5.2,4.53,6.75,14.88,9.3,13.27,3.22,15,10.54,13.77,16.74C640.84,337.8,629.92,339.72,625.83,339.72Z"
     transform="translate(-98.67 -64.15)"
     id="path161" />
  <path
     class="cls-1"
     d="M651.44,338.73a3.1,3.1,0,0,1-3.1-3.1V293.09a3.14,3.14,0,0,1,3.1-3.1,3.11,3.11,0,0,1,3.1,3.1v42.54A3.07,3.07,0,0,1,651.44,338.73Z"
     transform="translate(-98.67 -64.15)"
     id="path163" />
  <path
     class="cls-1"
     d="M699.56,338.48a3.44,3.44,0,0,1-3.6-.8l-30-36v34a3.1,3.1,0,0,1-6.2,0V293.09a3.08,3.08,0,0,1,5.45-2l30,36V293a3.06,3.06,0,0,1,3.1-3.1,3.11,3.11,0,0,1,3.1,3.1v42.66A2.68,2.68,0,0,1,699.56,338.48Z"
     transform="translate(-98.67 -64.15)"
     id="path165" />
  <path
     class="cls-1"
     d="M731.92,339.85a25.81,25.81,0,0,1-18-7.51,25,25,0,0,1-5.46-8,24.44,24.44,0,0,1-2-9.8,24.59,24.59,0,0,1,7.51-17.8,25.84,25.84,0,0,1,8.18-5.46,26.1,26.1,0,0,1,9.93-2,24.85,24.85,0,0,1,14.45,4.59,3.1,3.1,0,0,1,.74,4.34,3.15,3.15,0,0,1-4.34.74,18.29,18.29,0,0,0-10.85-3.47,19.7,19.7,0,0,0-13.71,5.64,19.55,19.55,0,0,0-4.22,6.08,18.68,18.68,0,0,0,4.16,20.71,19.2,19.2,0,0,0,13.64,5.71,18.6,18.6,0,0,0,7.82-1.68,19.09,19.09,0,0,0,5.39-3.72v-12.9a3.1,3.1,0,1,1,6.2,0v14.2a3.17,3.17,0,0,1-.8,2.05,25.67,25.67,0,0,1-8.25,6A24.68,24.68,0,0,1,731.92,339.85Z"
     transform="translate(-98.67 -64.15)"
     id="path167" />
  <g
     id="g123">
    <path
       id="path40-3"
       style="fill:#f58725;fill-opacity:1;fill-rule:nonzero;stroke:none;stroke-width:0.0716158"
       d="m 47.234882,154.61868 c 1.179496,-3.05099 23.825974,-1.60701 53.959718,-0.55956 0,0 84.69325,1.20525 91.43815,-16.2099 0.82315,-2.12538 0.48577,-4.52744 -1.30841,-7.2434 C 172.74032,102.47205 82.115495,75.566543 82.115495,75.566543 l -2.893832,-0.958146 c 4.692725,0.993221 9.97423,2.230445 15.660971,3.67974 33.872606,8.381483 110.482776,30.473323 126.092506,56.215863 3.44238,5.67741 4.87653,10.57718 3.11811,15.1174 -0.26328,0.67951 -0.59802,1.35045 -1.00797,2.01529 -0.0626,0.21317 -0.13417,0.42357 -0.21455,0.63126 -0.17145,0.44217 -0.38557,0.87102 -0.65636,1.28368 l -0.006,0.0142 -0.006,0.006 c -1.16646,1.76585 -2.95859,3.34189 -5.18083,4.76578 -15.03689,12.43255 -45.93171,19.60886 -59.15398,22.21995 -2.01861,0.48299 -4.10717,0.87102 -6.23055,1.13907 l -1.4e-4,3.1e-4 c -7.14555,0.90294 -14.68054,0.44249 -21.26912,-2.3668 -3.54831,-1.51372 -4.68269,-2.8534 -4.21605,-4.05809 0.92836,-2.39891 8.20056,-4.26424 15.38888,-5.91071 7.18826,-1.64613 14.2919,-3.07396 14.88196,-4.59747 0.30569,-0.78926 -1.13552,-1.60396 -5.22071,-2.48819 -18.04603,-3.90776 -74.397282,9.25807 -100.276125,-4.27243 -2.848826,-1.48976 -3.996545,-2.58937 -3.690418,-3.38378" />
    <path
       id="path40-8-3"
       style="fill:#1879be;fill-opacity:1;fill-rule:nonzero;stroke:none;stroke-width:0.0739951"
       d="m 213.86894,39.637219 c -1.10118,3.381127 -23.37597,3.13443 -52.998,3.755059 0,0 -83.222595,3.632047 -89.523705,22.931537 -0.76899,2.355328 -0.392729,4.943377 1.420497,7.787191 C 91.549044,103.56928 181.0781,127.49172 181.0781,127.49172 l 2.86069,0.87136 c -4.62853,-0.80446 -9.83998,-1.83964 -15.45347,-3.08129 C 135.05349,118.15868 59.381794,98.644471 43.566995,71.608624 40.079355,65.646039 38.579074,60.410427 40.221808,55.378931 c 0.245832,-0.752975 0.562185,-1.50094 0.952674,-2.246593 0.05754,-0.235054 0.123888,-0.467653 0.199031,-0.697837 0.159984,-0.489969 0.362444,-0.968111 0.621088,-1.431807 l 0.0036,-0.01623 0.0048,-0.008 C 43.115983,48.993397 44.8471,47.177861 47.003564,45.50246 61.543461,31.128389 91.759713,21.535523 104.70014,17.929607 c 1.97403,-0.642095 4.01853,-1.185173 6.09947,-1.600042 l 1.3e-4,-3.65e-4 c 7.00273,-1.396935 14.41346,-1.336702 20.93836,1.328777 3.51395,1.436326 4.65332,2.824519 4.21746,4.159541 -0.86792,2.658319 -7.97653,5.107673 -15.00738,7.314424 -7.03081,2.206366 -13.98257,4.170801 -14.5338,5.859145 -0.28557,0.874692 1.14539,1.675076 5.17508,2.396689 17.80081,3.189609 72.91297,-14.390485 98.58796,-1.211216 2.82641,1.451118 3.9744,2.577926 3.68851,3.458215" />
    <path
       id="path36"
       style="fill:#f58725;fill-opacity:1;fill-rule:nonzero;stroke:none;stroke-width:0.0819783"
       d="m 111.2807,172.38583 c 0,0 -43.306295,1.14699 -46.712525,11.51055 -2.590211,7.88294 9.031169,13.53555 27.028668,1.91984 13.080537,-8.44193 19.683857,-13.43039 19.683857,-13.43039" />
    <path
       id="path38"
       style="fill:#f58725;fill-opacity:1;fill-rule:nonzero;stroke:none;stroke-width:0.0552126"
       d="m 125.58957,200.20975 c -8.45293,8.70956 -22.22634,12.5683 -24.90288,4.9169 -2.807095,-8.0253 35.34021,-17.56962 35.34021,-17.56962 0,0 -1.98516,3.94277 -10.43733,12.65272" />
    <path
       id="path28-9-8"
       style="fill:#1879be;fill-opacity:1;fill-rule:nonzero;stroke:none;stroke-width:0.0819783"
       d="m 147.3108,18.469751 c 0,0 37.97428,4.357553 43.14952,-4.250224 C 194.396,7.6720996 185.47476,1.3100064 167.3196,9.2035728 154.12564,14.940189 147.3108,18.469751 147.3108,18.469751" />
  </g>
</svg>
