<svg id="Layer_1" data-name="Layer 1" xmlns="http://www.w3.org/2000/svg" viewBox="0 0 652.67 283.7"><defs><style>.cls-1{fill:#f58725;}.cls-2{fill:#1879be;}</style></defs><path class="cls-1" d="M307.39,196.72c-7.32,20-25.42,36.63-49.2,38.35-18.38,1.34-36.32-1.28-52.71-10.58-18.81-10.67-36.44-22.94-51.89-38.17-.45-.44-1.1-.84-1.29-1.39-.14-.39-.28-.79-.41-1.19-1.14-3.46,1.81-7.12,5.37-6.36a3.52,3.52,0,0,1,1.12.43c4.88,2.92,9.09,6.95,13.55,10.57,2,1.61,3.73,3.59,5.92,4.83a4.22,4.22,0,0,0,.61.28,3.64,3.64,0,0,0,4.59-4.63l0,0a42.11,42.11,0,0,0-4.38-7.37c-4.36-6.47-8.93-12.82-13.15-19.38a22.66,22.66,0,0,1-2.66-7.08c-.72-3.09.21-5.87,3.4-7.05s6.22-.37,7.85,2.73c2.73,5.21,5.32,10.51,7.57,15.93,7.74,18.72,19.19,34.91,35.64,46.57,20.95,14.85,43.45,14.48,66,2.93A77.62,77.62,0,0,0,307.39,196.72Z" transform="translate(-98.67 -64.15)"/><path class="cls-1" d="M200.84,187.45c-3-7.93-6.29-15.77-8.72-23.87-.81-2.72.09-6.35,1.22-9.15,1.67-4.14,6.61-4.31,9.11-.58a9.39,9.39,0,0,1,1.93,4.78c-.11,9.47-.51,19-.81,28.42Z" transform="translate(-98.67 -64.15)"/><path class="cls-1" d="M155.71,166.3c-5-2.83-10-5.6-14.89-8.61a9,9,0,0,1-3.68-4.24c-.63-1.83-.89-5.26.05-5.85,1.78-1.13,4.95-1.62,6.78-.75,2.41,1.15,4.4,3.63,6,5.93,2.65,3.81,5,7.84,7.39,11.81Z" transform="translate(-98.67 -64.15)"/><path class="cls-2" d="M182.33,122.55c2.19-18.73,9.1-33.77,23.58-44.68C218.35,68.49,233,65,248.11,64.28c25.42-1.22,49.11,6.3,72.29,15.72a91.46,91.46,0,0,1,13.39,6.3,4.29,4.29,0,0,1,.55.4A4.79,4.79,0,0,1,331.73,95a2.94,2.94,0,0,1-1.15-.07c-6.42-1.71-12.56-4.46-18.82-6.8a25.52,25.52,0,0,0-5.4-1.84l-.24,0a3.6,3.6,0,0,0-3.58,5,2.33,2.33,0,0,0,.54.75c4,3.61,8.43,6.81,12.73,10.1,3.55,2.71,7.32,5.16,10.7,8.06a39,39,0,0,1,6.33,7.11c1.9,2.72,2,5.76-.68,8.25a5.67,5.67,0,0,1-8.24.08c-4.42-4.12-8.58-8.55-12.57-13.09C298,97.34,282.1,85.93,263,79.15s-36.41-1.9-52.56,8.9C199.07,95.68,193.94,102.13,182.33,122.55Z" transform="translate(-98.67 -64.15)"/><path class="cls-2" d="M286.6,98.75c5.25,6.46,10.76,12.74,15.61,19.49,1.61,2.25,2.12,5.75,2,8.62a7.18,7.18,0,0,1-3.61,5.27c-1.44.63-4.74-.41-5.67-1.77A42.25,42.25,0,0,1,289.3,119c-1.89-6.29-3-12.82-4.44-19.25Z" transform="translate(-98.67 -64.15)"/><path class="cls-2" d="M335.46,104.55c6.66,1.65,13.46,2.89,19.93,5.1,4.45,1.52,6.1,5.51,4.28,8.16-2.41,3.49-6.05,3.08-8.91,1.2-5.64-3.71-10.89-8-16.31-12.06Z" transform="translate(-98.67 -64.15)"/><path class="cls-2" d="M436.16,86c-12.2-1.48-21.44,6.65-22.73,17.37-3.52,27.18,48.24,42.15,39,83.74-9.24,42.52-90,44.74-77.27-8.5a32.6,32.6,0,0,1,19.23-22.18c3.32-.93,16.45,4.8,18.85,10.35a26.9,26.9,0,0,0-23.47,17.56c-11.28,35.12,36,34,41.77,3.51,7-34-42.14-47.32-40.11-78.56,1.29-19,20.89-34,44.92-30.87,36.41,5,30.13,55.45-4.81,45.66-3.32-1.11-4.06-15.9.37-14.42C450.4,119.8,459.09,88.2,436.16,86Z" transform="translate(-98.67 -64.15)"/><path class="cls-2" d="M543.75,234.23c-10.72-3.7-22.55-5.92-33.28-5.18-1.1,3.51-1.47,5.73-3.32,12.2-4.44,11.46-10.35,20.15-24,21.81-29.58,3.15-30.14-37.71,9.79-42.14l1.85-7.76a21.14,21.14,0,0,1-13.49,5.17c-9.06,0-14.42-4.07-17.38-10.17-5.17-10.53-4.25-35.67,3.51-65.43,5.36-2,17.93-3.15,22.37,0-8.32,26.25-12.38,48.8-10.54,57.86.56,4.25,2.41,7.57,5.55,9.24,3.88,1.85,9.06-1.67,13.12-7.77,5.18-21.81,9.06-38.63,14.42-59.33,7.77-2.22,17.56-3,23.85,0-7.95,21.62-17.56,55.82-23.29,78.19,14.79.55,25.14,4.25,34.75,8.5C549.11,230.53,544.67,234.23,543.75,234.23Zm-52.87-3.7c-19.78,4.07-23.85,18.67-18.3,22.55C480.71,260.29,489,237,490.88,230.53Z" transform="translate(-98.67 -64.15)"/><path class="cls-2" d="M602.91,159c-.38,3.51-13.87,11.83-17.38,9.43,5.54-9.8,4.81-25.88-7.95-16.27-5.55,4.26-12.38,12.57-20.52,32.35-2.4,10.54-5,21.82-6.84,32.35-4.06,1.67-14.42,2.78-17.19,0,3.7-32.53,11.65-64.7,17.19-78,7.21-2,16.45-3,22,0-1.85,3.15-3.7,8.14-6.47,16.09,4.81-7.21,11.46-13.13,19.78-13.5C595,141.06,602.91,149.57,602.91,159Z" transform="translate(-98.67 -64.15)"/><path class="cls-2" d="M688.11,181.55c-2.59,18.11-12.94,36.41-27.54,36.6-8.51,0-13.5-3.52-16.27-9.06a12.77,12.77,0,0,1-1.11-3.14c-5.54,6.47-13.86,11.27-21.44,12-25,2.77-24.59-27.54-21.81-40.48,2.95-13.13,9.61-25.51,18.3-31.43a27.3,27.3,0,0,1,14.42-4.62,32.57,32.57,0,0,1,16.08,4.07l.74-2.22c4.8-1.85,16.82-3,20.89.18-8.14,24-13.68,50.1-11.84,58.79.74,4.07,2.22,6.84,4.81,8.13,9.06,4.81,20.15-20.15,20.33-28.47A4.79,4.79,0,0,1,688.11,181.55ZM647.63,151c-3.88-.92-8.32.74-12.57,3.33-7.58,4.62-13.31,14.23-16.45,24.4-1.3,5-6.66,32.17,5.36,32.17,5.73,0,13.12-6.47,18.3-14.24C641.71,185.43,643.56,168.24,647.63,151Z" transform="translate(-98.67 -64.15)"/><path class="cls-1" d="M128.81,338.73h-27a3.1,3.1,0,0,1-3.1-3.1V293.09a3.1,3.1,0,0,1,3.1-3.1,3.07,3.07,0,0,1,3.1,3.1v39.44h23.94a3.1,3.1,0,0,1,0,6.2Z" transform="translate(-98.67 -64.15)"/><path class="cls-1" d="M180,338.48a3.22,3.22,0,0,1-4.16-1.55l-4.28-9.55a26.06,26.06,0,0,0-12-.18,28,28,0,0,0-9.3,3.66,53.15,53.15,0,0,0-8.68,6.76,3.21,3.21,0,0,1-4,.74c-1.37-.87-1.18-2.61-.56-4l19.6-42.54a3.13,3.13,0,0,1,2.85-1.8,3.09,3.09,0,0,1,2.79,1.8l19.29,42.54A3.18,3.18,0,0,1,180,338.48Zm-20.59-38L147.53,325.9a40.17,40.17,0,0,1,11.1-4.22,32.77,32.77,0,0,1,10.17-.56Z" transform="translate(-98.67 -64.15)"/><path class="cls-1" d="M196.82,338.86a3.12,3.12,0,0,1-2.91-1.93L176.17,294a3.12,3.12,0,0,1,5.77-2.36l14.88,36,14.89-36a3.08,3.08,0,0,1,4-1.67,3,3,0,0,1,1.67,4l-17.73,42.91A3.11,3.11,0,0,1,196.82,338.86Z" transform="translate(-98.67 -64.15)"/><path class="cls-1" d="M258.46,335.63a3.06,3.06,0,0,1-3.1,3.1H225.72a3.11,3.11,0,0,1-3.11-3.1V293.09a3.11,3.11,0,0,1,3.11-3.1h29a3.1,3.1,0,1,1,0,6.2H228.82v14.95h22.94a3.1,3.1,0,0,1,3.1,3.1,3.07,3.07,0,0,1-3.1,3.1H228.82v15.19h26.54A3.07,3.07,0,0,1,258.46,335.63Z" transform="translate(-98.67 -64.15)"/><path class="cls-1" d="M296.65,338.67a3.18,3.18,0,0,1-3-2.54,23.72,23.72,0,0,0-3.53-9.12,11,11,0,0,0-4.34-3.78,9,9,0,0,0-3.6-1c-.8,0-1.67.06-2.54.06a3.1,3.1,0,0,1-3-2.85,3,3,0,0,1,2.48-3.29,11,11,0,0,1,3.16-.19,17.54,17.54,0,0,0,7.63-1.92c2.73-1.55,4-4,4-7.63a12.85,12.85,0,0,0-1.36-6.14,8.36,8.36,0,0,0-2.85-2.85,10.9,10.9,0,0,0-4.72-1.3H269.62v39.44a3.12,3.12,0,0,1-3.11,3.1,3.16,3.16,0,0,1-3.1-3.1V293a3.11,3.11,0,0,1,3.1-3.1h18.42a15.17,15.17,0,0,1,3.66.49,14.94,14.94,0,0,1,7,3.85,14.28,14.28,0,0,1,3.22,5,20,20,0,0,1,1.24,7.19c0,5.83-2.48,10.36-7.13,13-.31.18-.62.31-1,.49a18.75,18.75,0,0,1,3,3.23A29.11,29.11,0,0,1,299.69,335a3.11,3.11,0,0,1-2.42,3.66C297,338.61,296.84,338.67,296.65,338.67Z" transform="translate(-98.67 -64.15)"/><path class="cls-1" d="M308.43,338.73a3.1,3.1,0,0,1-3.1-3.1V293.09a3.14,3.14,0,0,1,3.1-3.1,3.1,3.1,0,0,1,3.1,3.1v42.54A3.06,3.06,0,0,1,308.43,338.73Z" transform="translate(-98.67 -64.15)"/><path class="cls-1" d="M352.64,335.63a3.06,3.06,0,0,1-3.1,3.1H319.9a3.1,3.1,0,0,1-3.1-3.1V293.09a3.1,3.1,0,0,1,3.1-3.1h29a3.1,3.1,0,1,1,0,6.2H323v14.95H346a3.11,3.11,0,0,1,3.1,3.1,3.08,3.08,0,0,1-3.1,3.1H323v15.19h26.54A3.07,3.07,0,0,1,352.64,335.63Z" transform="translate(-98.67 -64.15)"/><path class="cls-1" d="M383.64,347.85a2.79,2.79,0,0,1-1.36-.37,3.11,3.11,0,0,1-1.43-4.16l28.53-58.11a3.09,3.09,0,0,1,4.15-1.42,3.13,3.13,0,0,1,1.43,4.15l-28.53,58.17A3.17,3.17,0,0,1,383.64,347.85Z" transform="translate(-98.67 -64.15)"/><path class="cls-1" d="M446.27,338.73a3.11,3.11,0,0,1-3.11-3.1V293.09a3.11,3.11,0,0,1,3.11-3.1h18.41a15.17,15.17,0,0,1,3.66.49,15.57,15.57,0,0,1,7,3.85,14.45,14.45,0,0,1,3.23,5,20.25,20.25,0,0,1,1.24,7.19c0,5.89-2.49,10.36-7.14,13-3.35,1.92-7.81,2.85-13.33,2.85a3.1,3.1,0,1,1,0-6.2c4.4,0,7.88-.68,10.23-2.05,2.73-1.55,4-4,4-7.63a12.37,12.37,0,0,0-1.36-6.07,7.53,7.53,0,0,0-2.85-2.86,10.47,10.47,0,0,0-4.72-1.36H449.37v39.44A3.07,3.07,0,0,1,446.27,338.73Z" transform="translate(-98.67 -64.15)"/><path class="cls-1" d="M518,338.67a3.16,3.16,0,0,1-3-2.54,23.72,23.72,0,0,0-3.53-9.12,10.93,10.93,0,0,0-4.35-3.78,9,9,0,0,0-3.59-1c-.81,0-1.68.06-2.55.06a3.08,3.08,0,0,1-3-2.85,3,3,0,0,1,2.48-3.29,11,11,0,0,1,3.16-.19,17.58,17.58,0,0,0,7.63-1.92c2.73-1.55,4-4,4-7.63a12.85,12.85,0,0,0-1.37-6.14,8.27,8.27,0,0,0-2.85-2.85,10.87,10.87,0,0,0-4.71-1.3H491v39.44a3.11,3.11,0,0,1-3.1,3.1,3.15,3.15,0,0,1-3.1-3.1V293a3.1,3.1,0,0,1,3.1-3.1h18.42a15.23,15.23,0,0,1,3.66.49,14.86,14.86,0,0,1,7,3.85,14.16,14.16,0,0,1,3.23,5,20,20,0,0,1,1.24,7.19c0,5.83-2.48,10.36-7.13,13-.31.18-.62.31-1,.49a19.56,19.56,0,0,1,3,3.23A29.11,29.11,0,0,1,521.05,335a3.12,3.12,0,0,1-2.42,3.66C518.38,338.61,518.2,338.67,518,338.67Z" transform="translate(-98.67 -64.15)"/><path class="cls-1" d="M562.22,335.63a3.07,3.07,0,0,1-3.1,3.1H529.48a3.11,3.11,0,0,1-3.11-3.1V293.09a3.11,3.11,0,0,1,3.11-3.1h29a3.1,3.1,0,1,1,0,6.2H532.58v14.95h22.94a3.1,3.1,0,0,1,3.1,3.1,3.07,3.07,0,0,1-3.1,3.1H532.58v15.19h26.54A3.08,3.08,0,0,1,562.22,335.63Z" transform="translate(-98.67 -64.15)"/><path class="cls-1" d="M585.4,339.72a32.43,32.43,0,0,1-4.9-.37,24.26,24.26,0,0,1-7.93-2.6,10.36,10.36,0,0,1-5.27-5.46c-.75-2.17,1.55-4.9,3.78-3.78a4.56,4.56,0,0,1,1.3,1.36c2.23,2.73,5.71,3.91,9.06,4.47a23.58,23.58,0,0,0,8.12-.13c2.91-.62,5.7-2.11,6.82-5a6.53,6.53,0,0,0,.19-4.46c-1.43-4.22-6.7-5.77-11.17-6.7a47.07,47.07,0,0,1-8.74-2.54c-3-1.18-5.95-3-7.63-5.83-2-3.41-1.67-8.81-.43-11.35,3.78-7.57,11.1-8.44,15.38-8.44a26,26,0,0,1,9.24,1.62c3.41,1.3,6.08,3.53,6.88,5.89a2.92,2.92,0,0,1-.56,2.91,2.58,2.58,0,0,1-3.22.75,9.68,9.68,0,0,1-.87-.75,14.16,14.16,0,0,0-5.39-3.53A16.69,16.69,0,0,0,584,295c-4.84,0-10.36,1.86-10.36,7.51,0,5.2,4.53,6.75,14.89,9.3,13.27,3.22,15,10.54,13.76,16.74C600.41,337.8,589.5,339.72,585.4,339.72Z" transform="translate(-98.67 -64.15)"/><path class="cls-1" d="M625.83,339.72a32.33,32.33,0,0,1-4.9-.37,24.4,24.4,0,0,1-7.94-2.6,10.44,10.44,0,0,1-5.27-5.46c-.74-2.17,1.55-4.9,3.79-3.78a4.68,4.68,0,0,1,1.3,1.36c2.23,2.73,5.7,3.91,9.05,4.47a23.63,23.63,0,0,0,8.13-.13c2.91-.62,5.7-2.11,6.82-5a6.47,6.47,0,0,0,.18-4.46c-1.42-4.22-6.69-5.77-11.16-6.7a47.07,47.07,0,0,1-8.74-2.54c-3-1.18-6-3-7.63-5.83-2.05-3.41-1.67-8.81-.43-11.35,3.78-7.57,11.1-8.44,15.38-8.44a26,26,0,0,1,9.24,1.62c3.41,1.3,6.07,3.53,6.88,5.89a2.94,2.94,0,0,1-.56,2.91,2.59,2.59,0,0,1-3.22.75,9.68,9.68,0,0,1-.87-.75,14.13,14.13,0,0,0-5.4-3.53,16.61,16.61,0,0,0-6.07-.81c-4.84,0-10.36,1.86-10.36,7.51,0,5.2,4.53,6.75,14.88,9.3,13.27,3.22,15,10.54,13.77,16.74C640.84,337.8,629.92,339.72,625.83,339.72Z" transform="translate(-98.67 -64.15)"/><path class="cls-1" d="M651.44,338.73a3.1,3.1,0,0,1-3.1-3.1V293.09a3.14,3.14,0,0,1,3.1-3.1,3.11,3.11,0,0,1,3.1,3.1v42.54A3.07,3.07,0,0,1,651.44,338.73Z" transform="translate(-98.67 -64.15)"/><path class="cls-1" d="M699.56,338.48a3.44,3.44,0,0,1-3.6-.8l-30-36v34a3.1,3.1,0,0,1-6.2,0V293.09a3.08,3.08,0,0,1,5.45-2l30,36V293a3.06,3.06,0,0,1,3.1-3.1,3.11,3.11,0,0,1,3.1,3.1v42.66A2.68,2.68,0,0,1,699.56,338.48Z" transform="translate(-98.67 -64.15)"/><path class="cls-1" d="M731.92,339.85a25.81,25.81,0,0,1-18-7.51,25,25,0,0,1-5.46-8,24.44,24.44,0,0,1-2-9.8,24.59,24.59,0,0,1,7.51-17.8,25.84,25.84,0,0,1,8.18-5.46,26.1,26.1,0,0,1,9.93-2,24.85,24.85,0,0,1,14.45,4.59,3.1,3.1,0,0,1,.74,4.34,3.15,3.15,0,0,1-4.34.74,18.29,18.29,0,0,0-10.85-3.47,19.7,19.7,0,0,0-13.71,5.64,19.55,19.55,0,0,0-4.22,6.08,18.68,18.68,0,0,0,4.16,20.71,19.2,19.2,0,0,0,13.64,5.71,18.6,18.6,0,0,0,7.82-1.68,19.09,19.09,0,0,0,5.39-3.72v-12.9a3.1,3.1,0,1,1,6.2,0v14.2a3.17,3.17,0,0,1-.8,2.05,25.67,25.67,0,0,1-8.25,6A24.68,24.68,0,0,1,731.92,339.85Z" transform="translate(-98.67 -64.15)"/></svg>