<?xml version="1.0" encoding="UTF-8" standalone="no"?>
<!-- Created with Inkscape (http://www.inkscape.org/) -->

<svg
   width="210mm"
   height="297mm"
   viewBox="0 0 210 297"
   version="1.1"
   id="svg5"
   inkscape:version="1.1 (c4e8f9e, 2021-05-24)"
   sodipodi:docname="drawing.svg"
   xmlns:inkscape="http://www.inkscape.org/namespaces/inkscape"
   xmlns:sodipodi="http://sodipodi.sourceforge.net/DTD/sodipodi-0.dtd"
   xmlns="http://www.w3.org/2000/svg"
   xmlns:svg="http://www.w3.org/2000/svg">
  <sodipodi:namedview
     id="namedview7"
     pagecolor="#505050"
     bordercolor="#ffffff"
     borderopacity="1"
     inkscape:pageshadow="0"
     inkscape:pageopacity="0"
     inkscape:pagecheckerboard="1"
     inkscape:document-units="mm"
     showgrid="false"
     inkscape:zoom="0.50155022"
     inkscape:cx="397.76674"
     inkscape:cy="561.25984"
     inkscape:window-width="1312"
     inkscape:window-height="791"
     inkscape:window-x="0"
     inkscape:window-y="23"
     inkscape:window-maximized="0"
     inkscape:current-layer="layer1" />
  <defs
     id="defs2" />
  <g
     inkscape:label="Layer 1"
     inkscape:groupmode="layer"
     id="layer1">
    <path
       id="path40-3"
       style="fill:#3471be;fill-opacity:1;fill-rule:nonzero;stroke:none;stroke-width:0.0308183"
       d="m 72.127379,201.49414 c 0.0021,-1.5679 8.366242,-3.27815 19.374498,-5.96724 0,0 30.698463,-8.38038 30.714883,-17.3313 0.002,-1.09238 -0.45273,-2.19301 -1.47616,-3.28816 -10.60091,-11.34449 -47.001671,-14.49457 -47.001671,-14.49457 l -1.176078,-0.14742 c 1.82943,-0.0261 3.904949,0.001 6.155963,0.0856 13.373149,0.38509 44.054196,2.73919 53.251276,13.26686 2.02827,2.32185 3.22476,4.48809 3.22048,6.82164 -6.4e-4,0.34924 -0.0283,0.70202 -0.0839,1.05985 0.007,0.10744 0.0104,0.21453 0.0102,0.32128 -4.4e-4,0.22727 -0.0182,0.45278 -0.0586,0.6766 l 2.5e-4,0.007 -7.1e-4,0.003 c -0.17562,0.9586 -0.60311,1.89353 -1.20675,2.80194 -3.6966,7.47025 -13.83878,14.12996 -18.24321,16.76247 -0.66072,0.4418 -1.35982,0.84608 -2.08812,1.19728 v 1.7e-4 c -2.45071,1.18227 -5.23087,1.76077 -7.99559,1.12815 -1.48906,-0.34107 -2.08377,-0.8549 -2.08262,-1.47409 0.002,-1.2329 2.3649,-2.88382 4.72791,-4.42234 2.36304,-1.53836 4.72584,-2.96451 4.72729,-3.74755 7.4e-4,-0.40566 -0.63179,-0.63874 -2.22709,-0.62529 -7.04738,0.0586 -25.53582,12.24189 -36.741325,8.57629 -1.233571,-0.40364 -1.79981,-0.80252 -1.799617,-1.21066" />
    <path
       id="path28-9-7"
       style="fill:#3471be;fill-opacity:1;fill-rule:nonzero;stroke:none;stroke-width:0.0352778"
       d="m 90.239352,123.98325 c 0,0 14.265628,2.14807 16.209788,-2.09514 1.47849,-3.22757 -1.8729,-6.36376 -8.693147,-2.47262 -4.95653,2.82786 -7.516641,4.56776 -7.516641,4.56776" />
    <path
       id="path40-8-3"
       style="fill:#3471be;fill-opacity:1;fill-rule:nonzero;stroke:none;stroke-width:0.0318423"
       d="m 117.6255,128.63862 c 10e-4,1.7173 -8.14864,3.61969 -18.873476,6.6034 0,0 -29.9065,9.28603 -29.9065,19.08979 0,1.19646 0.4452,2.40036 1.44469,3.59628 10.35291,12.38831 45.838016,15.7114 45.838016,15.7114 l 1.14658,0.15735 c -1.78308,0.035 -3.80612,0.0125 -6.00031,-0.0723 -13.035376,-0.37507 -42.944106,-2.84632 -51.927251,-14.34489 -1.9811,-2.53596 -3.15118,-4.90442 -3.15118,-7.46032 0,-0.3825 0.0263,-0.76899 0.0799,-1.16111 -0.007,-0.11766 -0.0105,-0.23494 -0.0105,-0.35187 0,-0.2489 0.0169,-0.49599 0.056,-0.74126 l -5.5e-4,-0.008 10e-4,-0.004 c 0.16947,-1.05054 0.58446,-2.07605 1.17119,-3.0731 3.589685,-8.19489 13.463255,-15.52451 17.751503,-18.4232 0.643212,-0.48621 1.323894,-0.93144 2.033122,-1.31865 v -1.9e-4 c 2.38658,-1.30342 5.09533,-1.94678 7.79123,-1.26354 1.45197,0.36836 2.03255,0.92908 2.03255,1.60725 0,1.35037 -2.29991,3.16683 -4.60036,4.86019 -2.30047,1.69317 -4.60092,3.26344 -4.60092,4.12108 0,0.44433 0.61692,0.69741 2.17183,0.6771 6.86892,-0.0888 24.867626,-13.49738 35.796076,-9.52168 1.20307,0.4378 1.75569,0.8727 1.75624,1.31973" />
    <path
       id="path28-9-2-9"
       style="fill:#3471be;fill-opacity:1;fill-rule:nonzero;stroke:none;stroke-width:0.0352778"
       d="m 94.132888,205.19614 c 0,0 -14.26563,-2.14806 -16.20979,2.09515 -1.47849,3.22756 1.8729,6.36376 8.69315,2.47262 4.95653,-2.82787 7.51664,-4.56777 7.51664,-4.56777" />
    <path
       id="path28-9"
       style="fill:#3471be;fill-opacity:1;fill-rule:nonzero;stroke:none;stroke-width:0.0352778"
       d="m 151.96048,13.729258 c 0,0 14.26563,2.148064 16.20979,-2.095148 1.47849,-3.2275637 -1.8729,-6.3637587 -8.69315,-2.4726187 -4.95653,2.8278657 -7.51664,4.5677667 -7.51664,4.5677667" />
    <path
       id="path40"
       style="fill:#3471be;fill-opacity:1;fill-rule:nonzero;stroke:none;stroke-width:0.0318423"
       d="m 128.73151,89.495883 c -0.001,-1.7173 8.14864,-3.61969 18.87348,-6.603406 0,0 29.90649,-9.286017 29.90649,-19.089779 0,-1.196464 -0.4452,-2.400362 -1.44469,-3.59628 -10.3529,-12.388309 -45.838,-15.711398 -45.838,-15.711398 l -1.14658,-0.157353 c 1.78307,-0.03499 3.80612,-0.01248 6.00031,0.07233 13.03536,0.375075 42.9441,2.84632 51.92725,14.34489 1.98109,2.535957 3.15117,4.904417 3.15117,7.460317 0,0.382506 -0.0263,0.768999 -0.0799,1.161114 0.006,0.117656 0.0105,0.234942 0.0105,0.351869 0,0.248904 -0.0169,0.495989 -0.0559,0.741265 l 5.5e-4,0.0075 -0.001,0.0041 c -0.16947,1.050534 -0.58447,2.076047 -1.1712,3.0731 -3.58968,8.194878 -13.46324,15.524501 -17.75149,18.423191 -0.64321,0.48621 -1.32389,0.93144 -2.03312,1.31865 v 1.9e-4 c -2.38658,1.30342 -5.09534,1.94678 -7.79123,1.26354 -1.45197,-0.36836 -2.03255,-0.92908 -2.03255,-1.60725 0,-1.35037 2.2999,-3.16683 4.60035,-4.86019 2.30048,-1.693175 4.60093,-3.263446 4.60093,-4.12109 0,-0.444328 -0.61692,-0.6974 -2.17183,-0.677092 -6.86892,0.08883 -24.86763,13.497382 -35.79607,9.521682 -1.20307,-0.4378 -1.75569,-0.8727 -1.75624,-1.31973" />
    <path
       id="path40-8"
       style="fill:#3471be;fill-opacity:1;fill-rule:nonzero;stroke:none;stroke-width:0.0318423"
       d="m 179.34663,18.384628 c 0.001,1.7173 -8.14864,3.61969 -18.87348,6.6034 0,0 -29.90649,9.286022 -29.90649,19.089782 0,1.19646 0.4452,2.40036 1.44469,3.59628 10.35291,12.38831 45.83801,15.7114 45.83801,15.7114 l 1.14658,0.15735 c -1.78308,0.035 -3.80612,0.0125 -6.00031,-0.0723 -13.03538,-0.37507 -42.9441,-2.84632 -51.92725,-14.34489 -1.9811,-2.53596 -3.15118,-4.90442 -3.15118,-7.46032 0,-0.3825 0.0263,-0.76899 0.0799,-1.16111 -0.007,-0.11766 -0.0105,-0.23494 -0.0105,-0.35187 0,-0.2489 0.0169,-0.49599 0.056,-0.74126 l -5.5e-4,-0.008 10e-4,-0.004 c 0.16947,-1.05054 0.58446,-2.07605 1.17119,-3.0731 3.58969,-8.194882 13.46326,-15.524502 17.75151,-18.423192 0.64321,-0.48621 1.32389,-0.93144 2.03312,-1.31865 v -1.9e-4 c 2.38658,-1.30342 5.09533,-1.94678 7.79122,-1.26354 1.45197,0.36836 2.03255,0.92908 2.03255,1.60725 0,1.35037 -2.29991,3.16683 -4.60035,4.86019 -2.30047,1.69317 -4.60092,3.26344 -4.60092,4.12108 0,0.44433 0.61692,0.69741 2.17183,0.6771 6.86891,-0.0888 24.86762,-13.49738 35.79607,-9.52168 1.20307,0.4378 1.75569,0.8727 1.75624,1.31973" />
    <path
       id="path28-9-2"
       style="fill:#3471be;fill-opacity:1;fill-rule:nonzero;stroke:none;stroke-width:0.0352778"
       d="m 155.85402,94.942143 c 0,0 -14.26563,-2.14806 -16.20979,2.09515 -1.47849,3.227557 1.8729,6.363757 8.69315,2.47262 4.95653,-2.82787 7.51664,-4.56777 7.51664,-4.56777" />
    <path
       id="path40-3-3"
       style="fill:#3471be;fill-opacity:1;fill-rule:nonzero;stroke:none;stroke-width:0.0308183"
       d="m -140.73053,122.96122 c 0.002,-1.5679 8.36624,-3.27815 19.3745,-5.96724 0,0 30.69846,-8.38038 30.71488,-17.331296 0.002,-1.09238 -0.45273,-2.19301 -1.47616,-3.28816 -10.60091,-11.34449 -47.00167,-14.49457 -47.00167,-14.49457 l -1.17608,-0.14742 c 1.82943,-0.0261 3.90495,0.001 6.15596,0.0856 13.37315,0.38509 44.0542,2.73919 53.25128,13.26686 2.02827,2.32185 3.22476,4.48809 3.22048,6.821636 -6.4e-4,0.34924 -0.0283,0.70202 -0.0839,1.05985 0.007,0.10744 0.0104,0.21453 0.0102,0.32128 -4.4e-4,0.22727 -0.0182,0.45278 -0.0586,0.6766 l 2.5e-4,0.007 -7.1e-4,0.003 c -0.17562,0.9586 -0.60311,1.89353 -1.20675,2.80194 -3.6966,7.47025 -13.83878,14.12996 -18.24321,16.76247 -0.66072,0.4418 -1.35982,0.84608 -2.08812,1.19728 v 1.7e-4 c -2.45071,1.18227 -5.23087,1.76077 -7.99559,1.12815 -1.48906,-0.34107 -2.08377,-0.8549 -2.08262,-1.47409 0.002,-1.2329 2.3649,-2.88382 4.72791,-4.42234 2.36304,-1.53836 4.72584,-2.96451 4.72729,-3.74755 7.4e-4,-0.40566 -0.63179,-0.63874 -2.22709,-0.62529 -7.04738,0.0586 -25.53582,12.24189 -36.74133,8.57629 -1.23357,-0.40364 -1.79981,-0.80252 -1.79961,-1.21066" />
  </g>
</svg>
