<?xml version="1.0" encoding="UTF-8" standalone="no"?>
<!-- Created with Inkscape (http://www.inkscape.org/) -->

<svg
   width="69.607193mm"
   height="100.40884mm"
   viewBox="0 0 69.607193 100.40884"
   version="1.1"
   id="svg27263"
   inkscape:version="1.1 (c4e8f9e, 2021-05-24)"
   sodipodi:docname="inkscape-syra-logo.svg"
   xmlns:inkscape="http://www.inkscape.org/namespaces/inkscape"
   xmlns:sodipodi="http://sodipodi.sourceforge.net/DTD/sodipodi-0.dtd"
   xmlns="http://www.w3.org/2000/svg"
   xmlns:svg="http://www.w3.org/2000/svg">
  <sodipodi:namedview
     id="namedview27265"
     pagecolor="#505050"
     bordercolor="#ffffff"
     borderopacity="1"
     inkscape:pageshadow="0"
     inkscape:pageopacity="0"
     inkscape:pagecheckerboard="1"
     inkscape:document-units="mm"
     showgrid="false"
     inkscape:zoom="0.50065937"
     inkscape:cx="-24.967075"
     inkscape:cy="545.28092"
     inkscape:window-width="1312"
     inkscape:window-height="790"
     inkscape:window-x="128"
     inkscape:window-y="23"
     inkscape:window-maximized="0"
     inkscape:current-layer="layer1" />
  <defs
     id="defs27260" />
  <g
     inkscape:label="Layer 1"
     inkscape:groupmode="layer"
     id="layer1"
     transform="translate(-7.6119568,-4.1488415)">
    <path
       id="path40-3"
       style="fill:#f58725;fill-opacity:1;fill-rule:nonzero;stroke:none;stroke-width:0.0308183"
       d="m 10.496794,77.637008 c 0.443095,-1.50399 8.950571,-0.79218 20.270743,-0.27584 0,0 31.81624,0.59413 34.35006,-7.99068 0.30923,-1.04771 0.18249,-2.23181 -0.49152,-3.57064 -6.98136,-13.86857 -41.025878,-27.13166 -41.025878,-27.13166 l -1.08711,-0.47232 c 1.76289,0.48961 3.746964,1.0995 5.88327,1.81393 12.724732,4.13166 41.504448,15.02185 47.368468,27.71166 1.29318,2.79868 1.83194,5.21403 1.17136,7.45213 -0.0989,0.33496 -0.22465,0.66571 -0.37866,0.99344 -0.0235,0.10508 -0.0504,0.2088 -0.0806,0.31118 -0.0644,0.21797 -0.14484,0.42937 -0.24657,0.63279 l -0.002,0.007 -0.002,0.003 c -0.4382,0.87048 -1.11144,1.64739 -1.94625,2.3493 -5.64883,6.12863 -17.25492,9.6662 -22.22205,10.95334 -0.75832,0.23809 -1.54292,0.42937 -2.3406,0.5615 l -5e-5,1.6e-4 c -2.68433,0.4451 -5.51496,0.21812 -7.990054,-1.16672 -1.332974,-0.74619 -1.759116,-1.40658 -1.583822,-2.00044 0.348757,-1.18254 3.080666,-2.10206 5.781056,-2.91369 2.70038,-0.81146 5.36896,-1.51531 5.59063,-2.26632 0.11483,-0.38907 -0.42658,-0.79068 -1.96124,-1.22656 -6.77925,-1.92633 -27.948412,4.56378 -37.670173,-2.1061 -1.0702,-0.73437 -1.501359,-1.27643 -1.386356,-1.66803" />
    <path
       id="path40-8-3"
       style="fill:#1879be;fill-opacity:1;fill-rule:nonzero;stroke:none;stroke-width:0.0318423"
       d="m 73.095277,20.956798 c -0.41367,1.66673 -8.78152,1.54512 -19.90946,1.85106 0,0 -31.263769,1.79042 -33.63087,11.30412 -0.288883,1.16106 -0.147535,2.43684 0.533631,3.8387 7.05547,14.52148 40.688349,26.31407 40.688349,26.31407 l 1.07466,0.42953 c -1.73877,-0.39655 -3.69653,-0.90685 -5.80532,-1.51892 -12.55915,-3.51134 -40.986311,-13.13089 -46.9273676,-26.45823 -1.310184,-2.93926 -1.873785,-5.52016 -1.256667,-8.00044 0.09235,-0.37118 0.211193,-0.73989 0.357884,-1.10746 0.02162,-0.11587 0.04654,-0.23053 0.07477,-0.344 0.0601,-0.24153 0.136156,-0.47723 0.233319,-0.70581 l 0.0014,-0.008 0.0019,-0.004 c 0.418107,-0.97854 1.068427,-1.87351 1.8785326,-2.6994 5.462122,-7.08571 16.813293,-11.81452 21.674552,-13.59206 0.741576,-0.3165203 1.509619,-0.5842303 2.291355,-0.7887403 l 4.6e-5,-1.8e-4 c 2.630678,-0.68862 5.414624,-0.65893 7.865796,0.6550203 1.32007,0.70804 1.74809,1.39235 1.58435,2.05045 -0.32605,1.31042 -2.996494,2.51783 -5.637741,3.60565 -2.64122,1.08763 -5.252747,2.056 -5.459823,2.88827 -0.107283,0.43118 0.430279,0.82573 1.944089,1.18145 6.687135,1.57232 27.390805,-7.0938 37.035995,-0.59707 1.06177,0.71533 1.49304,1.27079 1.38564,1.70473" />
    <path
       id="path36"
       style="fill:#f58725;fill-opacity:1;fill-rule:nonzero;stroke:none;stroke-width:0.0352778"
       d="m 34.556531,86.395328 c 0,0 -16.268637,0.56541 -17.548237,5.67414 -0.97305,3.8859 3.39269,6.67236 10.15371,0.94639 4.91389,-4.16146 7.394527,-6.62053 7.394527,-6.62053" />
    <path
       id="path38"
       style="fill:#f58725;fill-opacity:1;fill-rule:nonzero;stroke:none;stroke-width:0.0237596"
       d="m 39.931867,100.11115 c -3.175472,4.29339 -8.34965,6.19556 -9.355131,2.4238 -1.054525,-3.956082 13.276061,-8.660962 13.276061,-8.660962 0,0 -0.74576,1.94359 -3.92093,6.237162" />
    <path
       id="path28-9-8"
       style="fill:#1879be;fill-opacity:1;fill-rule:nonzero;stroke:none;stroke-width:0.0352778"
       d="m 48.091757,10.522278 c 0,0 14.26558,2.14806 16.20974,-2.0951503 1.47849,-3.22756 -1.8729,-6.36376 -8.69315,-2.47262 -4.9565,2.82787 -7.51659,4.5677703 -7.51659,4.5677703" />
  </g>
</svg>
