<?xml version="1.0" encoding="UTF-8" standalone="no"?>
<!-- Created with Inkscape (http://www.inkscape.org/) -->

<svg
   width="210mm"
   height="297mm"
   viewBox="0 0 210 297"
   version="1.1"
   id="svg5"
   inkscape:version="1.1 (c4e8f9e, 2021-05-24)"
   sodipodi:docname="drawing2.svg"
   xmlns:inkscape="http://www.inkscape.org/namespaces/inkscape"
   xmlns:sodipodi="http://sodipodi.sourceforge.net/DTD/sodipodi-0.dtd"
   xmlns="http://www.w3.org/2000/svg"
   xmlns:svg="http://www.w3.org/2000/svg">
  <sodipodi:namedview
     id="namedview7"
     pagecolor="#505050"
     bordercolor="#ffffff"
     borderopacity="1"
     inkscape:pageshadow="0"
     inkscape:pageopacity="0"
     inkscape:pagecheckerboard="1"
     inkscape:document-units="mm"
     showgrid="false"
     inkscape:zoom="0.50155022"
     inkscape:cx="340.94293"
     inkscape:cy="560.26294"
     inkscape:window-width="1312"
     inkscape:window-height="790"
     inkscape:window-x="1"
     inkscape:window-y="23"
     inkscape:window-maximized="0"
     inkscape:current-layer="layer1" />
  <defs
     id="defs2" />
  <g
     inkscape:label="Layer 1"
     inkscape:groupmode="layer"
     id="layer1">
    <path
       id="path40-3"
       style="fill:#f58725;fill-opacity:1;fill-rule:nonzero;stroke:none;stroke-width:0.0308183"
       d="m 68.045167,191.85486 c 0.443095,-1.50399 8.950571,-0.79218 20.270743,-0.27584 0,0 31.81624,0.59413 34.35006,-7.99068 0.30923,-1.04771 0.18249,-2.23181 -0.49152,-3.57064 -6.98136,-13.86857 -41.025878,-27.13166 -41.025878,-27.13166 l -1.08711,-0.47232 c 1.76289,0.48961 3.746964,1.0995 5.88327,1.81393 12.724732,4.13166 41.504448,15.02185 47.368468,27.71166 1.29318,2.79868 1.83194,5.21403 1.17136,7.45213 -0.0989,0.33496 -0.22465,0.66571 -0.37866,0.99344 -0.0235,0.10508 -0.0504,0.2088 -0.0806,0.31118 -0.0644,0.21797 -0.14484,0.42937 -0.24657,0.63279 l -0.002,0.007 -0.002,0.003 c -0.4382,0.87048 -1.11144,1.64739 -1.94625,2.3493 -5.64883,6.12863 -17.25492,9.6662 -22.22205,10.95334 -0.75832,0.23809 -1.54292,0.42937 -2.3406,0.5615 l -5e-5,1.6e-4 c -2.68433,0.4451 -5.51496,0.21812 -7.990054,-1.16672 -1.332974,-0.74619 -1.759116,-1.40658 -1.583822,-2.00044 0.348757,-1.18254 3.080666,-2.10206 5.781056,-2.91369 2.70038,-0.81146 5.36896,-1.51531 5.59063,-2.26632 0.11483,-0.38907 -0.42658,-0.79068 -1.96124,-1.22656 -6.77925,-1.92633 -27.948412,4.56378 -37.670173,-2.1061 -1.0702,-0.73437 -1.501359,-1.27643 -1.386356,-1.66803" />
    <path
       id="path40-8-3"
       style="fill:#1879be;fill-opacity:1;fill-rule:nonzero;stroke:none;stroke-width:0.0318423"
       d="m 130.64365,135.17465 c -0.41367,1.66673 -8.78152,1.54512 -19.90946,1.85106 0,0 -31.263769,1.79042 -33.63087,11.30412 -0.288883,1.16106 -0.147535,2.43684 0.533631,3.8387 7.05547,14.52148 40.688349,26.31407 40.688349,26.31407 l 1.07466,0.42953 c -1.73877,-0.39655 -3.69653,-0.90685 -5.80532,-1.51892 -12.55915,-3.51134 -40.986311,-13.13089 -46.927368,-26.45823 -1.310184,-2.93926 -1.873785,-5.52016 -1.256667,-8.00044 0.09235,-0.37118 0.211193,-0.73989 0.357884,-1.10746 0.02162,-0.11587 0.04654,-0.23053 0.07477,-0.344 0.0601,-0.24153 0.136156,-0.47723 0.233319,-0.70581 l 0.0014,-0.008 0.0019,-0.004 c 0.418107,-0.97854 1.068427,-1.87351 1.878533,-2.6994 5.462122,-7.08571 16.813293,-11.81452 21.674552,-13.59206 0.741576,-0.31652 1.509619,-0.58423 2.291355,-0.78874 l 4.6e-5,-1.8e-4 c 2.630678,-0.68862 5.414624,-0.65893 7.865796,0.65502 1.32007,0.70804 1.74809,1.39235 1.58435,2.05045 -0.32605,1.31042 -2.996494,2.51783 -5.637741,3.60565 -2.64122,1.08763 -5.252747,2.056 -5.459823,2.88827 -0.107283,0.43118 0.430279,0.82573 1.944089,1.18145 6.687135,1.57232 27.390805,-7.0938 37.035995,-0.59707 1.06177,0.71533 1.49304,1.27079 1.38564,1.70473" />
    <path
       id="path28-9"
       style="fill:#1879be;fill-opacity:1;fill-rule:nonzero;stroke:none;stroke-width:0.0352778"
       d="m 151.96048,13.729258 c 0,0 14.26563,2.148064 16.20979,-2.095148 1.47849,-3.2275637 -1.8729,-6.3637587 -8.69315,-2.4726187 -4.95653,2.8278657 -7.51664,4.5677667 -7.51664,4.5677667" />
    <path
       id="path40"
       style="fill:#f58725;fill-opacity:1;fill-rule:nonzero;stroke:none;stroke-width:0.0318423"
       d="m 128.73151,89.495883 c -0.001,-1.7173 8.14864,-3.61969 18.87348,-6.603406 0,0 29.90649,-9.286017 29.90649,-19.089779 0,-1.196464 -0.4452,-2.400362 -1.44469,-3.59628 -10.3529,-12.388309 -45.838,-15.711398 -45.838,-15.711398 l -1.14658,-0.157353 c 1.78307,-0.03499 3.80612,-0.01248 6.00031,0.07233 13.03536,0.375075 42.9441,2.84632 51.92725,14.34489 1.98109,2.535957 3.15117,4.904417 3.15117,7.460317 0,0.382506 -0.0263,0.768999 -0.0799,1.161114 0.006,0.117656 0.0105,0.234942 0.0105,0.351869 0,0.248904 -0.0169,0.495989 -0.0559,0.741265 l 5.5e-4,0.0075 -0.001,0.0041 c -0.16947,1.050534 -0.58447,2.076047 -1.1712,3.0731 -3.58968,8.194878 -13.46324,15.524501 -17.75149,18.423191 -0.64321,0.48621 -1.32389,0.93144 -2.03312,1.31865 v 1.9e-4 c -2.38658,1.30342 -5.09534,1.94678 -7.79123,1.26354 -1.45197,-0.36836 -2.03255,-0.92908 -2.03255,-1.60725 0,-1.35037 2.2999,-3.16683 4.60035,-4.86019 2.30048,-1.693175 4.60093,-3.263446 4.60093,-4.12109 0,-0.444328 -0.61692,-0.6974 -2.17183,-0.677092 -6.86892,0.08883 -24.86763,13.497382 -35.79607,9.521682 -1.20307,-0.4378 -1.75569,-0.8727 -1.75624,-1.31973" />
    <path
       id="path40-8"
       style="fill:#1879be;fill-opacity:1;fill-rule:nonzero;stroke:none;stroke-width:0.0318423"
       d="m 179.34663,18.384628 c 0.001,1.7173 -8.14864,3.61969 -18.87348,6.6034 0,0 -29.90649,9.286022 -29.90649,19.089782 0,1.19646 0.4452,2.40036 1.44469,3.59628 10.35291,12.38831 45.83801,15.7114 45.83801,15.7114 l 1.14658,0.15735 c -1.78308,0.035 -3.80612,0.0125 -6.00031,-0.0723 -13.03538,-0.37507 -42.9441,-2.84632 -51.92725,-14.34489 -1.9811,-2.53596 -3.15118,-4.90442 -3.15118,-7.46032 0,-0.3825 0.0263,-0.76899 0.0799,-1.16111 -0.007,-0.11766 -0.0105,-0.23494 -0.0105,-0.35187 0,-0.2489 0.0169,-0.49599 0.056,-0.74126 l -5.5e-4,-0.008 10e-4,-0.004 c 0.16947,-1.05054 0.58446,-2.07605 1.17119,-3.0731 3.58969,-8.194882 13.46326,-15.524502 17.75151,-18.423192 0.64321,-0.48621 1.32389,-0.93144 2.03312,-1.31865 v -1.9e-4 c 2.38658,-1.30342 5.09533,-1.94678 7.79122,-1.26354 1.45197,0.36836 2.03255,0.92908 2.03255,1.60725 0,1.35037 -2.29991,3.16683 -4.60035,4.86019 -2.30047,1.69317 -4.60092,3.26344 -4.60092,4.12108 0,0.44433 0.61692,0.69741 2.17183,0.6771 6.86891,-0.0888 24.86762,-13.49738 35.79607,-9.52168 1.20307,0.4378 1.75569,0.8727 1.75624,1.31973" />
    <path
       id="path28-9-2"
       style="fill:#f58725;fill-opacity:1;fill-rule:nonzero;stroke:none;stroke-width:0.0352778"
       d="m 155.85402,94.942143 c 0,0 -14.26563,-2.14806 -16.20979,2.09515 -1.47849,3.227557 1.8729,6.363757 8.69315,2.47262 4.95653,-2.82787 7.51664,-4.56777 7.51664,-4.56777" />
    <path
       id="path36"
       style="fill:#f58725;fill-opacity:1;fill-rule:nonzero;stroke:none;stroke-width:0.0352778"
       d="m 92.104904,200.61318 c 0,0 -16.268637,0.56541 -17.548237,5.67414 -0.97305,3.8859 3.39269,6.67236 10.15371,0.94639 4.91389,-4.16146 7.394527,-6.62053 7.394527,-6.62053" />
    <path
       id="path38"
       style="fill:#f58725;fill-opacity:1;fill-rule:nonzero;stroke:none;stroke-width:0.0237596"
       d="m 97.48024,214.329 c -3.175472,4.29339 -8.34965,6.19556 -9.355131,2.4238 -1.054525,-3.95608 13.276061,-8.66096 13.276061,-8.66096 0,0 -0.74576,1.94359 -3.92093,6.23716" />
    <path
       id="path28-9-8"
       style="fill:#1879be;fill-opacity:1;fill-rule:nonzero;stroke:none;stroke-width:0.0352778"
       d="m 105.64013,124.74013 c 0,0 14.26558,2.14806 16.20974,-2.09515 1.47849,-3.22756 -1.8729,-6.36376 -8.69315,-2.47262 -4.9565,2.82787 -7.51659,4.56777 -7.51659,4.56777" />
  </g>
</svg>
